<?xml version="1.0" standalone="no"?>
<!DOCTYPE svg PUBLIC "-//W3C//DTD SVG 20010904//EN"
 "http://www.w3.org/TR/2001/REC-SVG-20010904/DTD/svg10.dtd">
<svg version="1.0" xmlns="http://www.w3.org/2000/svg"
 width="141.000000pt" height="140.000000pt" viewBox="0 0 141.000000 140.000000"
 preserveAspectRatio="xMidYMid meet">

<g transform="translate(0.000000,140.000000) scale(0.100000,-0.100000)"
fill="#000000" stroke="none">
<path d="M530 1374 c-30 -8 -93 -33 -140 -56 -67 -33 -101 -58 -170 -127 -143
-144 -198 -266 -207 -456 -9 -204 47 -360 184 -505 124 -132 257 -201 420
-220 225 -25 424 43 576 198 144 145 207 295 207 492 0 115 -22 207 -72 309
-34 70 -60 104 -133 177 -78 78 -104 98 -185 137 -52 25 -119 50 -148 56 -74
15 -266 13 -332 -5z m214 -318 c34 -14 66 -50 66 -73 0 -20 -15 -16 -51 14
-26 22 -42 27 -84 27 -42 0 -58 -5 -84 -27 -38 -32 -51 -34 -51 -9 0 22 35 57
70 71 36 14 96 13 134 -3z m190 -105 c56 -14 61 -22 38 -73 -36 -82 -131 -133
-265 -144 -167 -14 -337 72 -349 176 -5 40 46 48 307 49 127 0 247 -4 269 -8z
m-487 -193 c26 -14 74 -34 106 -43 42 -12 57 -21 57 -35 0 -10 8 -28 19 -41
17 -21 23 -22 57 -14 31 8 40 16 47 42 9 29 17 34 76 53 74 24 131 58 173 104
l28 30 0 -77 0 -77 -70 0 c-69 0 -72 -1 -115 -41 -34 -31 -47 -52 -51 -80 l-7
-39 -187 0 c-168 0 -190 2 -211 19 -28 22 -39 100 -32 212 l6 77 28 -32 c15
-18 49 -44 76 -58z m251 -80 c-2 -15 -10 -23 -23 -23 -13 0 -21 8 -23 23 -3
18 1 22 23 22 22 0 26 -4 23 -22z m404 -5 c16 -14 18 -34 18 -183 0 -128 -3
-171 -14 -186 -12 -16 -29 -19 -118 -22 -124 -4 -183 8 -192 41 -3 12 -6 78
-6 146 l0 124 49 48 48 49 98 0 c78 0 102 -4 117 -17z"/>
<path d="M910 615 c0 -9 -13 -23 -29 -32 -26 -16 -29 -23 -35 -91 -3 -41 -6
-95 -6 -119 l0 -43 115 0 115 0 0 150 0 150 -80 0 c-66 0 -80 -3 -80 -15z
m140 -95 c0 -19 -7 -20 -95 -20 -88 0 -95 1 -95 20 0 19 7 20 95 20 88 0 95
-1 95 -20z m-11 -49 c8 -5 11 -16 8 -25 -5 -13 -22 -16 -81 -16 -41 0 -81 3
-90 6 -21 8 -20 31 2 37 31 8 147 7 161 -2z m11 -74 c0 -28 -25 -37 -101 -37
-78 0 -96 8 -85 35 7 20 186 22 186 2z"/>
</g>
</svg>
