<?xml version="1.0" standalone="no"?>
<!DOCTYPE svg PUBLIC "-//W3C//DTD SVG 20010904//EN"
 "http://www.w3.org/TR/2001/REC-SVG-20010904/DTD/svg10.dtd">
<svg version="1.0" xmlns="http://www.w3.org/2000/svg"
 width="139.000000pt" height="139.000000pt" viewBox="0 0 139.000000 139.000000"
 preserveAspectRatio="xMidYMid meet">

<g transform="translate(0.000000,139.000000) scale(0.100000,-0.100000)"
fill="#000000" stroke="none">
<path d="M530 1364 c-223 -59 -404 -225 -485 -444 -37 -100 -46 -270 -20 -385
36 -162 150 -323 297 -421 196 -131 459 -149 671 -45 447 218 533 797 168
1133 -133 123 -281 179 -470 177 -59 0 -130 -7 -161 -15z m216 -309 c105 -31
194 -184 138 -239 -18 -19 -16 -19 -47 -7 -17 7 -27 21 -32 43 -12 55 -32 84
-70 102 -48 23 -105 13 -145 -24 -30 -28 -30 -28 -30 -139 l0 -111 195 0 195
0 10 -26 c6 -14 10 -89 10 -167 0 -204 27 -187 -290 -187 -256 0 -259 0 -274
22 -13 18 -16 53 -16 173 0 82 4 155 8 162 4 6 20 16 35 22 l27 11 0 105 c0
78 4 115 16 138 33 64 91 111 159 128 46 11 57 10 111 -6z"/>
<path d="M630 590 c-24 -24 -26 -57 -6 -86 8 -11 16 -45 18 -74 6 -98 70 -98
76 0 2 29 10 63 19 76 16 25 12 66 -9 91 -16 20 -75 16 -98 -7z"/>
</g>
</svg>
