<?xml version="1.0" standalone="no"?>
<!DOCTYPE svg PUBLIC "-//W3C//DTD SVG 20010904//EN"
 "http://www.w3.org/TR/2001/REC-SVG-20010904/DTD/svg10.dtd">
<svg version="1.0" xmlns="http://www.w3.org/2000/svg"
 width="141.000000pt" height="140.000000pt" viewBox="0 0 141.000000 140.000000"
 preserveAspectRatio="xMidYMid meet">
<metadata>
Created by potrace 1.16, written by Peter Selinger 2001-2019
</metadata>
<g transform="translate(0.000000,140.000000) scale(0.100000,-0.100000)"
fill="#000000" stroke="none">
<path d="M530 1384 c-77 -20 -204 -85 -272 -138 -67 -54 -148 -157 -188 -241
-167 -352 -15 -777 337 -941 98 -46 180 -64 299 -64 312 0 565 183 671 485 25
72 28 93 28 215 -1 125 -3 141 -32 223 -42 120 -85 188 -174 278 -62 63 -93
85 -170 122 -52 25 -122 53 -155 61 -78 20 -268 20 -344 0z m486 -264 c8 0 14
-10 14 -25 0 -33 43 -52 77 -34 21 11 27 10 51 -14 24 -25 25 -28 10 -43 -25
-25 -6 -70 33 -78 28 -5 30 -9 27 -43 -3 -33 -7 -38 -30 -41 -36 -4 -52 -47
-30 -80 14 -22 13 -25 -10 -49 -22 -21 -29 -23 -47 -13 -35 18 -79 4 -83 -28
-3 -23 -8 -27 -41 -30 -34 -3 -38 -1 -43 27 -8 38 -53 58 -77 34 -14 -15 -18
-15 -41 1 -28 17 -34 44 -15 63 19 19 -8 73 -36 73 -16 0 -25 7 -29 24 -9 34
1 53 34 64 35 13 46 44 26 75 -15 22 -14 25 9 47 21 20 28 22 50 12 33 -15 75
0 75 27 0 22 28 43 48 36 8 -3 20 -5 28 -5z m-488 -196 c26 -5 32 -12 37 -43
5 -30 12 -39 37 -49 27 -10 36 -9 62 8 l31 19 37 -36 37 -36 -21 -27 c-18 -25
-19 -31 -7 -64 10 -29 18 -36 39 -36 36 0 50 -17 50 -60 0 -43 -14 -60 -50
-60 -21 0 -29 -7 -39 -35 -11 -31 -10 -39 4 -61 20 -31 13 -54 -25 -82 -28
-21 -31 -22 -55 -6 -46 30 -105 0 -105 -54 0 -14 -9 -21 -31 -26 -47 -9 -79 2
-79 28 0 28 -17 49 -52 64 -22 9 -31 8 -51 -9 -14 -10 -27 -19 -30 -19 -10 0
-67 61 -67 72 0 6 7 20 17 30 14 16 15 23 3 58 -11 35 -17 39 -49 42 -35 3
-36 4 -39 48 -4 48 13 70 53 70 15 0 25 10 34 35 11 30 10 39 -5 65 l-18 30
34 35 34 35 29 -19 c24 -15 35 -17 62 -8 27 8 35 16 40 43 3 18 13 38 23 43
21 12 22 13 60 5z"/>
<path d="M933 995 c-63 -27 -91 -112 -58 -175 20 -39 63 -60 121 -60 67 0 114
47 114 114 0 108 -81 163 -177 121z"/>
<path d="M447 756 c-48 -18 -71 -38 -91 -81 -33 -69 -6 -174 57 -219 40 -30
144 -29 184 0 48 36 73 82 73 136 0 126 -109 206 -223 164z"/>
</g>
</svg>
