<?xml version="1.0" standalone="no"?>
<!DOCTYPE svg PUBLIC "-//W3C//DTD SVG 20010904//EN"
 "http://www.w3.org/TR/2001/REC-SVG-20010904/DTD/svg10.dtd">
<svg version="1.0" xmlns="http://www.w3.org/2000/svg"
 width="155.000000pt" height="156.000000pt" viewBox="0 0 155.000000 156.000000"
 preserveAspectRatio="xMidYMid meet">
<metadata>
Created by potrace 1.16, written by Peter Selinger 2001-2019
</metadata>
<g transform="translate(0.000000,156.000000) scale(0.100000,-0.100000)"
fill="#000000" stroke="none">
<path d="M605 1545 c-236 -51 -438 -214 -536 -431 -49 -108 -69 -202 -69 -328
0 -135 19 -227 65 -325 148 -311 452 -484 790 -450 301 31 554 233 659 527 30
84 31 93 31 247 -1 158 -1 161 -36 255 -61 163 -137 267 -268 366 -145 108
-290 155 -479 153 -54 0 -124 -7 -157 -14z m265 -296 c95 -43 150 -127 150
-229 0 -33 -6 -75 -14 -94 -35 -85 -138 -156 -226 -156 -76 0 -118 18 -175 73
-63 61 -92 137 -80 210 27 161 202 261 345 196z m-239 -496 c47 -25 64 -28
144 -28 80 0 96 3 147 29 l57 30 46 -36 c98 -77 143 -158 179 -320 l6 -28
-435 0 c-341 0 -435 3 -435 13 1 50 54 188 98 251 24 35 117 115 134 116 3 0
30 -12 59 -27z"/>
</g>
</svg>
