<?xml version="1.0" standalone="no"?>
<!DOCTYPE svg PUBLIC "-//W3C//DTD SVG 20010904//EN"
 "http://www.w3.org/TR/2001/REC-SVG-20010904/DTD/svg10.dtd">
<svg version="1.0" xmlns="http://www.w3.org/2000/svg"
 width="500.000000pt" height="500.000000pt" viewBox="0 0 500.000000 500.000000"
 preserveAspectRatio="xMidYMid meet">

<g transform="translate(0.000000,500.000000) scale(0.100000,-0.100000)"
fill="#000000" stroke="none">
<path d="M3050 4352 l0 -618 123 -159 c68 -88 263 -340 433 -560 170 -220 331
-429 358 -464 34 -44 46 -68 40 -77 -5 -7 -164 -212 -354 -456 -189 -244 -397
-512 -462 -596 l-118 -152 1 -618 0 -617 24 30 c29 35 249 319 374 481 47 62
270 350 496 640 225 291 495 639 599 774 316 408 400 515 409 521 5 3 -155
217 -354 475 -200 258 -510 658 -689 890 -179 231 -446 578 -595 771 -148 194
-273 352 -277 352 -5 1 -8 -277 -8 -617z m1880 -1896 c0 -4 -301 -396 -394
-512 -23 -29 -134 -173 -248 -320 -114 -148 -225 -291 -247 -319 -64 -82 -621
-803 -697 -900 -38 -50 -112 -146 -164 -213 l-95 -122 -3 596 -2 595 82 107
c236 306 748 966 795 1025 l54 67 459 0 c253 0 460 -2 460 -4z"/>
<path d="M877 2976 c-131 -47 -234 -202 -271 -408 l-7 -38 45 0 44 0 16 73
c29 131 87 226 160 264 44 23 122 20 157 -6 15 -11 31 -21 33 -21 3 0 18 19
33 41 l27 42 -33 27 c-50 42 -130 52 -204 26z"/>
<path d="M1848 2981 c-112 -36 -208 -164 -258 -343 -29 -105 -28 -108 24 -108
43 0 44 1 50 38 12 67 56 186 84 227 59 84 153 111 229 64 37 -23 39 -22 72
33 l22 37 -41 27 c-45 30 -130 41 -182 25z"/>
<path d="M2245 2971 c-82 -37 -155 -150 -155 -240 0 -53 37 -104 110 -153 65
-44 76 -48 132 -48 l61 0 -7 32 c-8 42 -28 62 -106 113 -86 55 -94 66 -87 116
6 49 28 74 74 90 44 14 87 6 129 -26 l32 -25 31 42 c30 40 30 42 13 61 -47 54
-154 72 -227 38z"/>
<path d="M2757 2976 c-129 -46 -226 -184 -271 -383 l-14 -63 48 0 48 0 7 45
c9 62 38 145 70 200 72 122 211 150 256 51 27 -59 22 -142 -17 -273 -6 -22 -3
-23 39 -23 l46 0 17 53 c9 28 18 101 21 162 4 102 3 113 -19 155 -41 78 -137
109 -231 76z"/>
<path d="M1190 2964 c0 -9 19 -110 41 -225 l42 -209 41 0 41 1 143 209 c78
116 145 217 149 226 5 13 -2 15 -38 12 -48 -3 -35 11 -212 -248 -27 -39 -51
-70 -52 -68 -2 2 -15 70 -29 151 -14 82 -28 153 -31 158 -4 5 -26 9 -51 9 -33
0 -44 -4 -44 -16z"/>
<path d="M850 2618 c-30 -65 -28 -68 40 -68 33 0 60 -4 60 -10 0 -5 20 -10 44
-10 l43 0 12 57 c6 31 11 60 11 65 0 4 -43 8 -95 8 l-96 0 -19 -42z"/>
<path d="M590 2432 c0 -57 29 -129 65 -160 59 -53 170 -52 275 2 41 21 46 28
62 82 27 95 25 104 -22 104 -37 0 -40 -2 -49 -37 -6 -21 -11 -43 -11 -50 0
-27 -129 -45 -171 -23 -22 12 -49 61 -49 90 0 17 -6 20 -50 20 -48 0 -50 -1
-50 -28z"/>
<path d="M1231 2373 c-12 -49 -24 -96 -27 -105 -5 -15 1 -18 40 -18 42 0 46 2
52 28 11 49 35 147 40 165 5 14 -1 17 -39 17 l-45 0 -21 -87z"/>
<path d="M1560 2412 c0 -63 34 -130 80 -157 48 -27 139 -27 200 2 76 35 83 44
75 91 l-7 41 -45 -25 c-49 -26 -107 -31 -146 -13 -28 12 -57 58 -57 88 0 19
-6 21 -50 21 l-50 0 0 -48z"/>
<path d="M2294 2443 c-23 -74 -62 -103 -137 -103 -51 0 -78 10 -114 42 l-21
20 -26 -38 c-33 -49 -33 -58 7 -88 98 -75 260 -45 336 62 17 25 51 103 51 118
0 2 -20 4 -45 4 -35 0 -47 -4 -51 -17z"/>
<path d="M2470 2418 c1 -91 63 -171 144 -183 114 -17 243 64 312 198 l15 27
-50 0 c-45 0 -51 -3 -69 -34 -49 -83 -165 -117 -219 -64 -14 14 -28 41 -32 59
-6 32 -9 34 -54 37 l-47 3 0 -43z"/>
<path d="M996 1731 c-7 -11 -56 -211 -56 -228 0 -28 20 -11 29 25 29 109 48
203 40 207 -4 3 -10 1 -13 -4z"/>
<path d="M1049 1724 c-12 -15 -1 -24 28 -24 19 0 23 -4 19 -17 -20 -67 -42
-184 -35 -189 12 -7 23 23 44 123 17 80 18 82 49 85 18 2 31 9 31 17 0 17
-122 22 -136 5z"/>
<path d="M1874 1729 c-6 -8 -18 -49 -28 -91 -20 -88 -51 -127 -87 -107 -23 12
-24 44 -4 119 18 67 19 83 3 78 -12 -4 -47 -135 -48 -180 0 -19 8 -33 26 -44
23 -16 28 -16 59 -1 41 19 56 48 80 144 18 75 17 106 -1 82z"/>
<path d="M2364 1732 c-12 -8 -67 -233 -59 -240 11 -11 22 15 39 91 10 44 21
75 25 70 4 -4 15 -39 25 -78 30 -119 43 -115 75 25 12 52 25 103 27 113 3 10
0 17 -9 17 -9 0 -19 -26 -31 -80 -9 -44 -21 -80 -25 -80 -4 0 -16 36 -26 80
-19 84 -24 93 -41 82z"/>
<path d="M1281 1704 c-31 -39 -27 -69 14 -100 40 -30 44 -47 14 -68 -16 -11
-28 -12 -47 -5 -17 7 -29 6 -36 -1 -16 -16 9 -34 49 -34 44 0 74 28 82 77 5
34 3 38 -31 58 -37 21 -42 33 -27 58 6 10 20 12 44 8 40 -6 52 0 36 20 -20 23
-75 16 -98 -13z"/>
<path d="M1451 1714 c-32 -23 -61 -90 -61 -146 0 -40 4 -50 25 -64 42 -27 103
7 131 75 17 41 18 123 2 139 -17 17 -70 15 -97 -4z m79 -35 c21 -38 -14 -134
-53 -148 -47 -18 -73 22 -55 86 19 73 83 110 108 62z"/>
<path d="M1614 1703 c-3 -16 -15 -62 -25 -105 -28 -111 -28 -110 33 -106 41 2
54 7 56 21 3 14 -4 17 -37 17 -23 0 -41 3 -41 8 0 4 11 49 24 100 19 73 21 92
10 92 -7 0 -16 -12 -20 -27z"/>
<path d="M1920 1715 c0 -9 9 -15 25 -15 14 0 25 -1 25 -2 0 -2 -11 -46 -24
-98 -14 -55 -21 -99 -15 -104 11 -12 16 2 43 112 21 81 24 87 51 92 16 3 30
11 33 18 3 9 -15 12 -67 12 -56 0 -71 -3 -71 -15z"/>
<path d="M2086 1713 c-14 -48 -46 -193 -46 -209 0 -43 23 10 50 115 21 85 25
111 15 111 -8 0 -16 -8 -19 -17z"/>
<path d="M2171 1701 c-40 -43 -62 -130 -45 -176 10 -25 48 -36 84 -24 61 22
110 152 76 204 -24 37 -79 35 -115 -4z m89 -16 c15 -18 6 -89 -16 -122 -36
-56 -94 -49 -94 12 0 90 69 159 110 110z"/>
<path d="M2547 1713 c-27 -31 -31 -69 -9 -91 11 -11 28 -24 37 -30 13 -7 16
-16 11 -35 -7 -29 -30 -37 -65 -25 -36 13 -49 -6 -18 -27 48 -31 117 14 117
76 0 22 -8 34 -35 51 -19 13 -35 28 -35 34 0 22 29 37 60 31 32 -7 51 10 29
24 -24 15 -75 10 -92 -8z"/>
</g>
</svg>
