<?xml version="1.0" standalone="no"?>
<!DOCTYPE svg PUBLIC "-//W3C//DTD SVG 20010904//EN"
 "http://www.w3.org/TR/2001/REC-SVG-20010904/DTD/svg10.dtd">
<svg version="1.0" xmlns="http://www.w3.org/2000/svg"
 width="1039.000000pt" height="843.000000pt" viewBox="0 0 1039.000000 843.000000"
 preserveAspectRatio="xMidYMid meet">

<g transform="translate(0.000000,843.000000) scale(0.100000,-0.100000)"
fill="#000000" stroke="none">
<path d="M4890 8420 c-129 -20 -247 -86 -347 -193 -73 -79 -113 -157 -148
-292 -14 -55 -33 -107 -41 -115 -12 -12 -62 -16 -272 -21 -260 -7 -299 -12
-396 -53 -67 -28 -162 -103 -215 -170 -70 -88 -108 -174 -136 -312 -14 -65
-29 -122 -35 -128 -5 -5 -24 -9 -42 -9 -2119 21 -2382 15 -2590 -66 -154 -60
-248 -119 -351 -220 -140 -137 -246 -345 -295 -579 -14 -69 -16 -322 -19
-2497 -4 -2513 -1 -2764 36 -2940 41 -195 118 -338 268 -496 169 -177 350
-269 593 -300 47 -6 1660 -9 4305 -10 3824 0 4239 1 4319 16 227 40 386 123
546 284 151 152 237 305 283 506 21 90 21 103 27 2625 3 1394 2 2594 -2 2665
-12 215 -77 418 -188 587 -63 96 -188 214 -287 272 -103 61 -260 121 -350 135
-178 27 -530 33 -1403 25 -1149 -12 -1036 -13 -1060 11 -14 14 -25 48 -35 105
-51 290 -190 454 -444 522 -62 17 -119 22 -318 27 -196 5 -245 9 -257 21 -8 8
-27 62 -41 120 -15 61 -41 132 -62 170 -46 83 -168 205 -249 247 -113 60 -150
66 -459 69 -154 1 -305 -1 -335 -6z m463 -664 c163 -79 247 -301 189 -492 -27
-87 -82 -159 -152 -202 -221 -132 -460 -39 -541 210 -28 87 -24 227 9 300 26
58 92 131 147 163 103 61 249 70 348 21z m4094 -1421 c119 -33 173 -108 192
-265 14 -111 15 -4902 1 -5010 -6 -45 -21 -97 -38 -130 -37 -74 -97 -105 -232
-120 -65 -8 -1382 -10 -4235 -8 -3948 3 -4143 4 -4200 21 -130 39 -168 90
-184 247 -12 109 -21 3658 -12 4530 6 548 6 556 28 596 33 61 94 109 166 130
58 16 134 18 1057 22 547 2 1073 0 1168 -3 166 -7 172 -8 176 -29 56 -317 177
-498 386 -577 126 -48 153 -49 1480 -50 1247 -1 1332 1 1426 35 223 78 384
275 416 509 6 45 18 89 25 97 12 13 140 16 991 21 1241 7 1310 6 1389 -16z"/>
<path d="M2715 5224 c-260 -40 -421 -113 -507 -230 -52 -71 -106 -182 -130
-272 -20 -68 -22 -103 -22 -307 0 -213 2 -239 27 -360 55 -259 104 -381 204
-512 148 -195 323 -288 538 -287 87 0 110 4 178 31 230 91 364 222 458 447 85
205 122 402 123 671 1 212 -13 306 -64 427 -103 246 -331 382 -660 393 -63 2
-128 1 -145 -1z"/>
<path d="M5236 4923 c-114 -34 -184 -115 -193 -222 -10 -110 37 -190 144 -243
l68 -33 1715 0 c1651 0 1717 1 1769 19 62 21 124 73 151 125 64 127 4 280
-133 342 l-52 24 -1710 2 c-1507 2 -1716 0 -1759 -14z"/>
<path d="M5243 3625 c-154 -42 -235 -181 -191 -327 18 -61 89 -133 154 -157
54 -21 64 -21 1773 -21 1916 0 1768 -6 1854 71 55 48 80 105 80 184 -1 105
-58 190 -163 239 l-45 21 -1705 2 c-1444 2 -1713 0 -1757 -12z"/>
<path d="M2371 3155 c-106 -95 -158 -127 -356 -215 -300 -135 -312 -148 -437
-499 -128 -359 -189 -604 -187 -760 0 -102 15 -144 54 -152 47 -10 2495 -9
2634 1 154 11 161 16 169 118 9 132 -48 384 -167 732 -104 306 -117 336 -177
395 -46 46 -87 71 -299 174 -218 107 -253 128 -313 184 -37 35 -80 72 -94 81
-27 17 -28 17 -64 -10 -20 -16 -90 -86 -155 -157 -88 -96 -120 -138 -125 -163
-3 -19 1 -73 10 -122 29 -151 126 -815 126 -860 0 -23 -6 -57 -14 -75 -22 -53
-114 -185 -141 -203 -30 -20 -24 -25 -106 94 -63 91 -79 129 -79 184 0 52 103
772 126 880 9 42 14 88 10 103 -11 44 -294 345 -324 345 -4 0 -45 -34 -91 -75z"/>
<path d="M6820 2330 c-1585 -5 -1585 -5 -1630 -26 -158 -74 -198 -280 -79
-409 68 -73 83 -77 349 -86 278 -9 2398 -10 2915 0 l360 6 46 27 c54 32 112
112 129 178 28 107 -32 221 -147 279 -48 24 -184 42 -288 39 -38 -2 -783 -5
-1655 -8z"/>
</g>
</svg>
