<?xml version="1.0" standalone="no"?>
<!DOCTYPE svg PUBLIC "-//W3C//DTD SVG 20010904//EN"
 "http://www.w3.org/TR/2001/REC-SVG-20010904/DTD/svg10.dtd">
<svg version="1.0" xmlns="http://www.w3.org/2000/svg"
 width="511.000000pt" height="939.000000pt" viewBox="0 0 511.000000 939.000000"
 preserveAspectRatio="xMidYMid meet">

<g transform="translate(0.000000,939.000000) scale(0.100000,-0.100000)"
fill="#000000" stroke="none">
<path d="M3336 9359 c-32 -10 -133 -33 -225 -50 -185 -34 -314 -73 -477 -147
-600 -268 -960 -738 -1103 -1440 -67 -326 -81 -517 -88 -1163 l-5 -537 -53 -7
c-28 -3 -279 -5 -556 -4 -497 2 -591 -2 -716 -33 -39 -9 -42 -13 -52 -56 -68
-295 -67 -1450 0 -1744 10 -43 14 -49 48 -58 116 -31 201 -35 671 -32 261 2
517 0 568 -3 l92 -7 0 -1956 c0 -1954 0 -1956 21 -1998 11 -24 38 -59 60 -78
l39 -36 868 0 867 0 34 52 c83 127 105 286 90 658 -6 143 -9 892 -7 1805 l3
1560 350 0 c193 0 505 -2 695 -5 315 -5 350 -3 405 13 80 25 127 73 151 152
16 55 17 125 18 815 0 594 -3 765 -13 800 -17 60 -73 113 -141 136 -52 18
-100 19 -760 19 l-705 0 -8 160 c-5 88 -9 302 -10 475 -2 263 1 330 16 408 59
314 157 427 422 488 57 14 165 18 575 24 278 4 516 10 530 14 14 4 44 12 67
18 48 12 51 19 74 153 18 104 20 1263 3 1367 -14 90 -48 169 -94 221 l-32 37
-782 -1 c-738 -1 -784 -2 -840 -20z"/>
</g>
</svg>
