<?xml version="1.0" standalone="no"?>
<!DOCTYPE svg PUBLIC "-//W3C//DTD SVG 20010904//EN"
 "http://www.w3.org/TR/2001/REC-SVG-20010904/DTD/svg10.dtd">
<svg version="1.0" xmlns="http://www.w3.org/2000/svg"
 width="782.000000pt" height="778.000000pt" viewBox="0 0 782.000000 778.000000"
 preserveAspectRatio="xMidYMid meet">

<g transform="translate(0.000000,778.000000) scale(0.100000,-0.100000)"
fill="#000000" stroke="none">
<path d="M3605 7763 c-1108 -96 -2069 -608 -2750 -1463 -715 -899 -1000 -2087
-774 -3225 143 -720 483 -1366 999 -1898 467 -482 1006 -820 1640 -1027 164
-54 425 -120 533 -136 l47 -6 0 714 c0 393 -3 1006 -7 1361 l-6 647 -489 0
-488 0 0 565 0 565 496 0 497 0 -5 388 c-9 603 10 832 86 1069 69 212 173 379
341 548 197 198 405 302 711 356 111 20 163 23 374 22 264 0 698 -25 746 -43
49 -19 82 -59 95 -115 8 -38 9 -159 3 -466 l-9 -414 -120 -2 c-530 -7 -723
-45 -853 -167 -133 -124 -165 -301 -160 -866 l3 -305 543 -3 c437 -2 542 -5
542 -15 0 -7 -38 -260 -85 -561 -47 -301 -85 -550 -85 -552 0 -2 -206 -4 -458
-4 l-458 0 3 -1318 c2 -724 6 -1336 9 -1359 6 -52 1 -51 165 -18 1418 288
2587 1369 2978 2753 67 235 110 479 132 740 17 201 6 621 -20 817 -101 745
-383 1407 -849 1991 -114 144 -377 412 -528 538 -602 504 -1311 800 -2108 881
-127 13 -574 18 -691 8z"/>
</g>
</svg>
