<?xml version="1.0" standalone="no"?>
<!DOCTYPE svg PUBLIC "-//W3C//DTD SVG 20010904//EN"
 "http://www.w3.org/TR/2001/REC-SVG-20010904/DTD/svg10.dtd">
<svg version="1.0" xmlns="http://www.w3.org/2000/svg"
 width="2122.000000pt" height="702.000000pt" viewBox="0 0 2122.000000 702.000000"
 preserveAspectRatio="xMidYMid meet">

<g transform="translate(0.000000,702.000000) scale(0.100000,-0.100000)"
fill="#000000" stroke="none">
<path d="M1439 6995 c-761 -119 -1341 -724 -1429 -1490 -14 -124 -14 -3866 0
-3990 23 -201 72 -369 160 -550 233 -481 654 -809 1190 -927 l105 -23 9145 0
9145 0 105 23 c737 162 1265 740 1350 1477 14 124 14 3866 0 3990 -23 201 -72
369 -160 550 -232 479 -646 803 -1185 927 l-100 23 -9120 1 c-7574 2 -9135 0
-9206 -11z m18188 -195 c348 -24 660 -159 911 -396 237 -223 383 -486 449
-810 17 -84 18 -200 18 -2084 0 -1884 -1 -2000 -18 -2084 -66 -323 -209 -583
-445 -808 -248 -236 -566 -374 -915 -398 -176 -12 -17858 -12 -18034 0 -349
24 -667 162 -915 398 -236 225 -379 485 -445 808 -17 84 -18 200 -18 2084 0
2204 -4 2043 62 2254 179 575 706 995 1298 1036 161 11 17893 11 18052 0z"/>
<path d="M12313 5696 c-94 -30 -180 -111 -209 -198 -22 -68 -16 -187 14 -244
47 -91 128 -143 223 -144 124 0 217 54 259 152 32 75 26 210 -13 291 -35 70
-102 131 -162 146 -53 13 -59 13 -112 -3z m107 -101 c46 -24 83 -112 83 -199
0 -85 -22 -139 -67 -167 -49 -30 -90 -34 -133 -13 -103 51 -131 222 -51 318
58 71 111 90 168 61z"/>
<path d="M8752 5670 c-107 -54 -160 -157 -149 -289 14 -163 112 -270 248 -271
138 0 231 75 265 213 15 58 15 77 5 137 -16 85 -61 164 -119 204 -37 26 -54
31 -115 34 -65 3 -78 0 -135 -28z m201 -103 c39 -40 59 -100 59 -179 0 -112
-64 -184 -156 -175 -42 4 -55 10 -87 45 -67 71 -76 179 -21 257 63 90 145 111
205 52z"/>
<path d="M6465 5679 c-3 -8 -47 -135 -99 -284 l-94 -270 52 -3 c64 -4 79 12
96 103 l12 66 97 -3 96 -3 29 -82 30 -83 55 7 c31 3 57 7 59 9 11 8 -129 448
-163 515 -14 26 -20 29 -68 29 -28 0 -62 3 -74 6 -15 4 -25 1 -28 -7z m114
-211 l29 -98 -75 0 c-73 0 -74 1 -67 23 16 52 78 190 81 181 1 -5 16 -53 32
-106z"/>
<path d="M7247 5543 c2 -81 5 -167 6 -190 1 -24 -1 -43 -4 -43 -13 0 -74 98
-124 198 -73 148 -100 172 -186 172 l-39 0 0 -275 0 -275 51 0 52 0 -5 200
c-4 157 -2 196 7 183 7 -10 40 -67 75 -128 108 -190 170 -255 244 -255 l24 0
4 238 c1 130 1 255 -2 277 l-5 40 -51 3 -50 3 3 -148z"/>
<path d="M7542 5683 l-42 -4 2 -277 3 -277 130 0 c115 0 135 3 171 22 94 50
156 164 157 288 1 115 -55 193 -165 229 -53 17 -183 27 -256 19z m228 -114
c54 -31 74 -76 73 -165 -1 -87 -27 -144 -75 -166 -48 -23 -147 -33 -152 -16
-3 7 -6 96 -8 197 l-4 184 64 -6 c37 -4 79 -15 102 -28z"/>
<path d="M8090 5411 l0 -281 55 0 55 0 0 111 0 111 48 -7 c71 -10 88 -26 111
-102 30 -99 40 -110 106 -115 37 -2 55 1 55 8 0 7 -9 41 -20 78 -19 61 -73
146 -109 173 -9 6 -14 13 -11 15 3 2 18 12 33 22 65 40 85 125 44 187 -39 59
-83 73 -234 77 l-133 4 0 -281z m219 176 c19 -7 43 -24 54 -39 19 -25 19 -28
3 -52 -21 -32 -64 -55 -119 -62 l-44 -6 -6 47 c-4 26 -7 65 -7 86 l0 39 43 -1
c23 0 57 -5 76 -12z"/>
<path d="M9558 5683 l-38 -4 0 -274 0 -273 63 -7 c88 -10 209 9 270 42 81 45
127 137 127 256 0 204 -139 289 -422 260z m172 -99 c68 -20 124 -73 139 -132
30 -110 -67 -232 -184 -232 l-42 0 -7 92 c-3 50 -6 135 -6 190 0 113 -1 112
100 82z"/>
<path d="M10447 5649 c-31 -82 -187 -521 -187 -525 0 -10 73 -3 104 10 23 10
35 23 40 42 4 16 16 48 27 72 l21 42 88 0 89 0 18 -80 18 -80 62 0 62 0 -9 28
c-6 15 -43 136 -84 270 -41 134 -76 245 -78 247 -1 2 -37 6 -79 10 l-76 7 -16
-43z m115 -156 c15 -49 30 -96 34 -106 6 -18 2 -18 -62 -12 -38 4 -71 9 -73
11 -5 4 63 194 69 194 3 0 17 -39 32 -87z"/>
<path d="M10890 5409 l0 -280 52 3 c62 4 65 11 67 129 l1 76 80 11 c44 6 93
18 109 26 43 23 78 70 86 116 24 142 -58 200 -282 200 l-113 0 0 -281z m246
183 c21 -14 34 -51 34 -96 l0 -44 -47 -10 c-27 -6 -65 -14 -85 -17 l-38 -7 0
91 0 91 63 0 c34 0 67 -4 73 -8z"/>
<path d="M11433 5683 l-33 -4 0 -275 0 -274 55 0 55 0 0 100 c0 95 1 100 23
105 12 3 55 11 96 20 131 26 177 73 167 173 -6 68 -31 110 -81 136 -33 17 -59
21 -145 22 -58 1 -120 0 -137 -3z m236 -110 c18 -21 22 -34 17 -62 -9 -56 -45
-84 -114 -89 l-59 -4 -6 88 c-5 64 -3 91 6 97 7 4 39 6 72 3 49 -5 64 -11 84
-33z"/>
<path d="M13094 5679 c-3 -6 -3 -87 1 -180 4 -100 4 -169 -2 -169 -16 0 -81
94 -118 171 -61 127 -71 144 -106 161 -19 10 -55 18 -80 18 l-45 0 3 -261 c3
-275 5 -289 48 -289 58 0 57 -4 49 196 -4 101 -4 184 0 184 7 0 88 -123 186
-284 68 -112 70 -114 140 -100 l32 7 -4 261 c-3 144 -8 269 -12 279 -9 19 -80
25 -92 6z"/>
<path d="M9260 5405 c0 -255 1 -275 18 -275 9 0 34 -3 55 -6 l37 -7 0 282 0
281 -55 0 -55 0 0 -275z"/>
<path d="M1866 5568 c331 -360 1788 -1864 1943 -2006 l80 -73 78 69 c120 105
533 541 533 561 0 35 -284 204 -935 556 -170 92 -463 256 -650 365 -615 357
-1029 580 -1079 580 -15 0 -8 -11 30 -52z"/>
<path d="M1621 5544 c-27 -35 -57 -133 -69 -225 -13 -110 -8 -3250 7 -3524 18
-353 29 -406 91 -459 38 -32 46 -32 97 -4 71 41 1997 1992 2035 2062 9 16 -25
53 -239 265 -136 135 -392 397 -568 581 -759 795 -1292 1330 -1324 1330 -5 0
-19 -12 -30 -26z"/>
<path d="M7125 4449 c-437 -59 -775 -378 -867 -819 -28 -135 -21 -354 16 -488
51 -182 144 -334 284 -462 236 -217 508 -308 808 -271 335 41 568 177 707 411
100 168 126 263 128 470 0 47 4 110 8 141 l7 56 -90 7 c-49 3 -266 6 -483 6
l-393 0 0 -43 c0 -24 3 -79 7 -121 l6 -78 349 4 349 3 -7 -50 c-29 -217 -152
-393 -341 -488 -129 -64 -213 -81 -377 -74 -96 3 -149 11 -201 27 -172 54
-323 166 -415 306 -27 41 -61 114 -80 170 -34 97 -34 102 -35 269 0 199 10
250 82 395 87 178 241 301 458 366 75 22 110 27 210 27 193 2 317 -40 455
-153 41 -34 82 -66 91 -71 13 -7 32 9 88 72 39 44 71 85 71 91 0 6 -31 41 -69
78 -103 102 -240 171 -405 206 -90 19 -270 26 -361 13z"/>
<path d="M15346 4421 l-79 -6 2 -979 c1 -539 4 -983 7 -988 3 -4 58 -8 123 -8
l118 0 5 395 c3 218 9 399 13 403 3 4 129 10 278 13 253 5 276 7 332 28 183
71 328 225 380 406 21 71 16 250 -9 328 -73 230 -249 355 -561 402 -101 15
-436 18 -609 6z m736 -288 c74 -35 136 -91 170 -155 19 -36 23 -59 23 -138 0
-84 -3 -102 -29 -158 -47 -101 -128 -161 -255 -188 -68 -14 -361 -19 -433 -8
l-38 7 0 339 0 340 248 -4 247 -3 67 -32z"/>
<path d="M12881 4413 l-64 -4 8 -977 c4 -537 9 -980 12 -984 2 -5 56 -8 119
-8 l114 0 0 990 0 990 -62 -2 c-35 -1 -92 -3 -127 -5z"/>
<path d="M16803 4413 l-93 -4 0 -985 0 -985 123 3 122 3 3 695 c2 382 0 827
-4 988 l-6 292 -27 -2 c-14 -1 -68 -4 -118 -5z"/>
<path d="M4310 3721 l-325 -319 25 -28 c117 -130 537 -570 547 -572 27 -7 582
296 798 435 55 36 114 79 132 95 39 38 50 89 33 160 -18 71 -70 121 -199 187
-56 29 -178 98 -269 152 -172 102 -348 194 -392 204 -22 5 -64 -33 -350 -314z"/>
<path d="M11815 3843 c-203 -29 -399 -171 -493 -359 -60 -117 -77 -195 -77
-344 1 -164 17 -233 87 -379 42 -87 62 -116 131 -186 123 -124 240 -175 401
-175 157 0 299 57 402 160 32 33 63 60 68 60 5 0 6 -47 2 -110 -19 -295 -109
-416 -348 -466 -157 -34 -241 -1 -381 146 -53 55 -98 100 -103 100 -22 0 -204
-77 -204 -86 0 -6 16 -43 35 -82 62 -122 201 -232 365 -288 84 -29 297 -26
405 4 128 37 202 77 276 151 106 105 166 251 201 481 15 103 17 496 4 983 l-9
347 -118 0 -118 0 -3 -91 -3 -91 -67 55 c-89 73 -169 121 -243 145 -63 21
-160 33 -210 25z m245 -258 c106 -35 206 -150 251 -287 34 -103 34 -273 1
-370 -57 -165 -169 -261 -335 -288 -182 -29 -346 64 -431 244 -74 155 -76 336
-6 481 89 184 326 284 520 220z"/>
<path d="M8888 3830 c-255 -40 -456 -211 -533 -451 -52 -165 -54 -371 -5 -513
97 -282 351 -459 660 -459 342 0 593 201 666 535 24 108 22 292 -5 391 -32
123 -83 210 -175 302 -128 127 -273 189 -466 199 -47 3 -111 1 -142 -4z m243
-236 c179 -51 308 -253 309 -481 0 -254 -139 -432 -372 -474 -134 -24 -251 13
-349 110 -151 151 -192 418 -94 611 92 182 321 288 506 234z"/>
<path d="M10348 3830 c-303 -51 -501 -248 -554 -551 -30 -172 -2 -355 78 -519
53 -106 178 -238 275 -288 166 -87 392 -95 590 -20 191 71 339 247 394 468 29
113 23 318 -11 425 -58 185 -189 353 -330 423 -128 63 -294 87 -442 62z m304
-267 c91 -43 151 -100 193 -187 42 -86 55 -149 55 -270 0 -206 -85 -351 -250
-430 -61 -29 -72 -31 -180 -31 -109 0 -119 2 -182 32 -170 80 -251 223 -252
443 -1 82 4 120 21 176 42 134 148 242 279 285 45 15 81 18 154 16 82 -2 104
-7 162 -34z"/>
<path d="M13760 3829 c-240 -35 -428 -211 -512 -479 -20 -66 -23 -95 -23 -235
0 -149 2 -165 28 -240 77 -219 239 -384 442 -448 58 -18 92 -22 200 -21 112 0
141 4 210 27 161 53 289 154 346 274 17 35 29 66 27 68 -6 6 -210 86 -212 83
-63 -97 -125 -155 -214 -196 -50 -24 -69 -27 -157 -27 -93 0 -105 2 -167 33
-80 39 -164 125 -203 207 -28 59 -62 182 -53 191 3 3 240 8 526 11 602 7 532
-11 532 138 0 157 -49 282 -156 395 -114 120 -262 196 -428 219 -86 12 -106
12 -186 0z m274 -252 c93 -43 171 -134 211 -247 l13 -37 -216 -6 c-120 -4
-293 -7 -386 -7 l-168 0 6 28 c12 49 55 129 95 174 42 47 133 101 197 118 67
16 186 5 248 -23z"/>
<path d="M17594 3831 c-180 -29 -344 -133 -407 -258 l-26 -51 37 -26 c21 -14
75 -39 120 -56 l81 -30 19 43 c25 56 66 95 132 126 47 22 69 25 155 26 94 0
105 -2 168 -33 50 -25 77 -46 103 -80 36 -50 74 -154 74 -204 0 -28 -2 -30
-27 -23 -129 33 -179 39 -328 39 -138 1 -171 -2 -240 -22 -158 -46 -259 -123
-313 -240 -32 -69 -42 -211 -22 -301 28 -124 108 -225 223 -280 90 -43 147
-54 277 -54 177 0 276 41 377 158 26 30 50 55 53 55 4 0 6 -39 6 -87 l-1 -88
119 0 118 0 -1 472 c-2 512 -5 541 -58 633 -14 25 -58 77 -97 115 -111 109
-235 161 -406 170 -47 2 -108 0 -136 -4z m311 -742 c22 -6 61 -20 88 -31 l47
-20 0 -57 c0 -77 -23 -141 -71 -194 -82 -94 -204 -147 -337 -147 -89 0 -135
11 -183 43 -43 28 -89 117 -89 171 0 116 117 214 293 246 61 10 195 5 252 -11z"/>
<path d="M19482 3790 c-35 -4 -67 -11 -71 -16 -4 -5 -93 -217 -196 -471 -104
-254 -191 -460 -195 -458 -17 11 -107 215 -224 510 -69 176 -139 345 -154 375
l-28 55 -127 3 c-103 2 -127 0 -127 -11 0 -26 77 -222 162 -412 47 -104 127
-282 177 -395 50 -113 109 -243 130 -290 22 -47 42 -97 45 -111 10 -49 -24
-144 -138 -379 -110 -225 -154 -335 -142 -347 3 -3 58 -2 122 3 l116 9 419
955 c230 525 421 963 425 973 5 15 -2 17 -63 16 -37 -1 -96 -5 -131 -9z"/>
<path d="M3649 3047 c-438 -420 -1609 -1612 -1609 -1638 0 -4 141 70 313 164
173 95 708 388 1190 652 572 313 876 485 877 496 0 31 -60 107 -171 214 -63
61 -163 163 -222 228 -60 64 -114 117 -122 117 -7 0 -122 -105 -256 -233z"/>
</g>
</svg>
