<?xml version="1.0" standalone="no"?>
<!DOCTYPE svg PUBLIC "-//W3C//DTD SVG 20010904//EN"
 "http://www.w3.org/TR/2001/REC-SVG-20010904/DTD/svg10.dtd">
<svg version="1.0" xmlns="http://www.w3.org/2000/svg"
 width="1053.000000pt" height="1052.000000pt" viewBox="0 0 1053.000000 1052.000000"
 preserveAspectRatio="xMidYMid meet">

<g transform="translate(0.000000,1052.000000) scale(0.100000,-0.100000)"
fill="#000000" stroke="none">
<path d="M6135 10509 c-181 -4 -946 -7 -1700 -7 -1377 0 -1579 -4 -1797 -37
-635 -96 -1209 -378 -1666 -819 -528 -511 -844 -1151 -926 -1876 -34 -295 -39
-528 -30 -1345 4 -434 7 -1314 5 -1955 -3 -1236 5 -1601 38 -1825 102 -685
411 -1287 906 -1764 481 -463 1102 -757 1765 -836 358 -42 527 -44 3095 -28
1955 12 1919 11 2170 57 1331 246 2350 1349 2489 2696 33 309 39 591 30 1305
-5 380 -9 1318 -9 2085 -1 1461 -2 1514 -46 1778 -154 928 -719 1724 -1549
2182 -279 155 -641 281 -955 334 -348 59 -901 76 -1820 55z m1205 -889 c404
-12 595 -38 815 -111 260 -86 644 -327 851 -533 288 -288 510 -728 590 -1171
8 -44 19 -179 24 -300 16 -393 21 -1879 11 -3230 -10 -1401 -12 -1443 -61
-1685 -60 -293 -192 -565 -424 -875 -297 -394 -806 -694 -1336 -786 -179 -31
-634 -38 -2355 -38 -1743 0 -2499 10 -2675 33 -389 52 -639 154 -995 406 -155
110 -260 204 -355 317 -306 365 -495 835 -521 1293 -15 270 -21 2424 -10 3580
10 1158 13 1202 67 1449 60 269 168 493 383 794 299 418 795 721 1346 821 173
32 254 37 690 46 470 10 3550 2 3955 -10z"/>
<path d="M7965 8733 c-210 -45 -372 -167 -455 -344 -147 -316 -10 -730 293
-879 135 -66 256 -83 407 -56 257 47 432 192 507 420 22 68 26 100 27 201 1
137 -14 207 -69 323 -60 128 -160 234 -278 294 -108 55 -288 72 -432 41z"/>
<path d="M5075 7653 c-105 -9 -320 -48 -432 -79 -752 -206 -1364 -761 -1633
-1479 -228 -611 -186 -1315 113 -1910 113 -225 265 -434 457 -625 369 -370
813 -596 1330 -676 162 -25 518 -25 685 0 525 79 997 317 1370 691 382 381
610 846 681 1385 23 177 15 525 -16 700 -185 1050 -1036 1863 -2076 1985 -115
13 -368 18 -479 8z m445 -889 c320 -55 597 -200 830 -434 120 -121 206 -242
281 -395 116 -238 153 -397 153 -665 0 -216 -14 -313 -74 -491 -131 -393 -405
-705 -780 -890 -175 -86 -349 -133 -547 -148 -452 -32 -880 127 -1198 444
-217 218 -354 473 -421 785 -29 132 -26 448 4 590 144 668 676 1150 1345 1220
103 11 295 3 407 -16z"/>
</g>
</svg>
