<?xml version="1.0" standalone="no"?>
<!DOCTYPE svg PUBLIC "-//W3C//DTD SVG 20010904//EN"
 "http://www.w3.org/TR/2001/REC-SVG-20010904/DTD/svg10.dtd">
<svg version="1.0" xmlns="http://www.w3.org/2000/svg"
 width="1336.000000pt" height="434.000000pt" viewBox="0 0 1336.000000 434.000000"
 preserveAspectRatio="xMidYMid meet">

<g transform="translate(0.000000,434.000000) scale(0.100000,-0.100000)"
fill="#000000" stroke="none">
<path d="M801 4315 c-206 -45 -383 -145 -526 -297 -122 -129 -202 -275 -248
-455 l-22 -88 0 -1305 0 -1305 22 -88 c46 -180 126 -326 248 -455 122 -130
273 -223 452 -279 l88 -28 5865 0 5865 0 88 28 c356 111 608 376 700 734 l22
88 0 1305 0 1305 -22 88 c-46 180 -126 326 -248 455 -122 130 -273 223 -452
279 l-88 28 -5840 2 c-4949 1 -5850 -1 -5904 -12z m11689 -115 c361 -57 650
-332 725 -691 22 -106 22 -2572 0 -2678 -75 -359 -364 -634 -725 -691 -90 -14
-11530 -14 -11620 0 -361 57 -650 332 -725 691 -22 106 -22 2572 0 2678 74
351 349 621 700 686 57 11 1141 13 5825 14 3873 1 5776 -2 5820 -9z"/>
<path d="M6610 3200 l0 -340 50 0 50 0 0 340 0 340 -50 0 -50 0 0 -340z"/>
<path d="M8310 3409 l0 -131 -39 35 c-95 86 -236 46 -295 -83 -31 -69 -29
-199 4 -264 38 -73 87 -109 159 -114 64 -5 105 10 154 56 l27 26 0 -37 0 -37
45 0 45 0 0 340 0 340 -50 0 -50 0 0 -131z m-63 -159 c46 -28 67 -74 67 -145
0 -107 -49 -168 -135 -167 -71 1 -117 54 -126 145 -14 133 96 227 194 167z"/>
<path d="M10620 3200 l0 -340 49 0 50 0 3 175 3 175 28 27 c23 24 36 28 82 28
98 0 114 -38 115 -262 l0 -143 45 0 45 0 0 193 c0 214 -6 236 -72 277 -72 44
-148 38 -209 -17 l-39 -35 0 100 c0 55 -3 114 -6 131 -6 29 -9 31 -50 31 l-44
0 0 -340z"/>
<path d="M2569 3487 c-177 -61 -311 -197 -354 -362 -8 -33 -15 -84 -15 -113
l0 -55 52 7 c237 32 408 229 420 486 4 67 -6 71 -103 37z"/>
<path d="M4050 3187 l0 -325 69 -7 c84 -8 206 1 280 21 39 11 65 27 100 62 62
63 85 133 86 262 0 84 -3 102 -28 152 -16 33 -45 70 -67 88 -71 56 -100 64
-277 68 l-163 4 0 -325z m281 223 c87 -24 133 -78 150 -178 21 -120 -23 -221
-116 -263 -29 -13 -65 -19 -127 -19 l-88 0 0 235 0 235 73 0 c39 0 88 -5 108
-10z"/>
<path d="M10280 3411 l0 -60 -37 -3 c-36 -3 -38 -5 -41 -40 -3 -37 -2 -38 37
-44 l41 -7 0 -149 c0 -216 18 -248 143 -248 l68 0 -3 38 c-3 35 -5 37 -40 40
-61 5 -68 25 -68 184 l0 138 49 0 c48 0 49 1 55 35 4 20 4 40 1 45 -3 6 -28
10 -56 10 l-49 0 0 60 0 60 -50 0 -50 0 0 -59z"/>
<path d="M4880 3351 c-69 -21 -122 -66 -156 -131 -28 -53 -26 -191 4 -247 41
-79 119 -123 216 -123 85 0 156 45 199 125 29 53 31 203 4 252 -53 98 -171
153 -267 124z m135 -112 c79 -70 69 -236 -18 -289 -61 -38 -138 -14 -173 52
-23 44 -24 152 -1 195 42 79 128 98 192 42z"/>
<path d="M6214 3346 c-17 -8 -43 -29 -57 -47 l-27 -34 0 43 0 42 -45 0 -45 0
0 -245 0 -245 45 0 c53 0 49 -15 50 180 0 116 3 151 17 176 27 49 95 69 151
43 46 -21 51 -43 55 -226 l4 -173 44 0 44 0 3 118 c5 237 2 268 -24 307 -44
65 -142 93 -215 61z"/>
<path d="M7020 3351 c-69 -21 -121 -65 -156 -131 -14 -26 -19 -57 -19 -121 0
-78 3 -90 30 -134 46 -74 101 -108 181 -113 82 -6 140 16 188 68 38 42 66 120
66 182 0 166 -147 292 -290 249z m115 -93 c14 -6 35 -27 47 -47 29 -46 31
-160 5 -209 -22 -40 -71 -72 -112 -72 -39 0 -90 32 -109 67 -48 94 -17 232 59
263 29 13 80 12 110 -2z"/>
<path d="M7555 3347 c-62 -21 -84 -36 -105 -70 -30 -48 -26 -57 25 -57 34 0
50 6 69 25 21 21 35 25 79 25 68 0 94 -19 103 -77 l7 -43 -44 0 c-65 0 -169
-19 -207 -37 -93 -44 -95 -179 -3 -240 45 -30 126 -31 182 -3 22 12 42 27 46
35 9 25 23 16 23 -15 0 -29 2 -30 46 -30 l45 0 -3 199 c-3 185 -5 202 -24 228
-12 15 -35 36 -53 46 -40 24 -134 31 -186 14z m171 -307 c-8 -53 -24 -77 -62
-95 -71 -33 -154 -4 -154 54 0 51 57 77 174 80 l49 1 -7 -40z"/>
<path d="M8995 3351 c-139 -36 -214 -176 -171 -322 34 -118 107 -179 216 -179
147 0 240 99 240 255 0 105 -47 187 -132 231 -35 18 -112 26 -153 15z m116
-97 c38 -19 68 -83 69 -145 0 -126 -77 -201 -174 -169 -139 46 -110 330 33
330 23 0 56 -7 72 -16z"/>
<path d="M9602 3353 c-12 -2 -37 -20 -56 -39 -36 -37 -46 -35 -46 8 0 27 -2
28 -45 28 l-45 0 0 -245 0 -245 50 0 50 0 0 171 0 171 29 28 c33 34 68 45 115
36 66 -12 71 -27 74 -226 l3 -178 25 -5 c13 -2 35 -2 49 1 l25 4 0 172 c0 94
-5 189 -11 211 -24 89 -106 129 -217 108z"/>
<path d="M11328 3348 c-49 -13 -116 -72 -139 -122 -21 -46 -26 -167 -9 -226
14 -50 62 -105 115 -130 112 -54 266 -7 304 93 l11 27 -50 0 c-28 0 -50 -5
-50 -10 0 -19 -65 -50 -105 -50 -71 0 -135 59 -135 125 l0 25 176 0 177 0 -6
60 c-17 160 -139 248 -289 208z m141 -97 c22 -14 51 -66 51 -91 0 -6 -46 -10
-125 -10 -137 0 -140 2 -110 60 32 62 121 82 184 41z"/>
<path d="M5243 3336 c3 -8 34 -118 68 -245 l62 -231 52 0 53 0 32 118 c17 64
39 143 48 175 8 31 19 57 23 57 5 0 13 -17 18 -37 6 -21 27 -100 48 -175 l38
-138 53 0 c28 0 52 2 52 6 0 3 27 100 59 217 33 117 63 224 66 240 7 26 6 27
-38 27 -25 0 -48 -4 -51 -8 -2 -4 -21 -78 -40 -163 -39 -170 -50 -207 -58
-193 -5 8 -98 350 -98 360 0 2 -20 4 -45 4 -55 0 -52 6 -105 -199 -21 -85 -43
-158 -48 -163 -4 -4 -16 24 -25 64 -9 40 -28 124 -43 186 l-26 112 -50 0 c-39
0 -49 -3 -45 -14z"/>
<path d="M1713 2915 c-108 -24 -189 -71 -278 -160 -60 -60 -90 -99 -118 -156
-123 -250 -111 -588 33 -922 103 -239 273 -463 397 -523 75 -37 162 -31 293
22 79 31 111 38 186 42 86 4 96 2 230 -43 115 -39 149 -46 194 -43 103 7 195
70 291 199 71 97 174 269 197 332 37 98 38 90 -26 130 -182 112 -282 319 -254
522 17 120 66 211 163 307 44 42 79 81 79 86 0 23 -138 136 -203 168 -94 45
-161 57 -281 52 -89 -4 -114 -10 -211 -47 -74 -29 -132 -45 -175 -48 -59 -4
-76 -1 -190 42 -142 54 -225 64 -327 40z"/>
<path d="M8170 2494 c-201 -43 -337 -183 -348 -359 -6 -102 17 -171 81 -241
69 -76 154 -115 369 -168 258 -64 327 -109 336 -219 3 -41 -2 -62 -20 -97 -66
-123 -298 -166 -457 -86 -55 28 -118 94 -127 133 -12 49 -20 53 -119 53 -50 0
-94 -2 -97 -5 -3 -3 -1 -29 4 -58 38 -209 234 -340 508 -340 127 0 201 14 297
58 164 76 251 238 222 417 -12 75 -36 123 -86 169 -73 68 -135 95 -371 160
-158 43 -243 77 -281 112 -75 69 -56 190 39 255 86 58 245 68 343 22 59 -28
111 -87 127 -145 l13 -45 100 0 100 0 -5 50 c-11 115 -106 239 -224 295 -112
53 -270 68 -404 39z"/>
<path d="M4402 2477 c-6 -7 -40 -93 -75 -192 -84 -232 -271 -751 -352 -975
l-63 -175 106 -3 c58 -1 108 1 112 5 4 4 33 86 65 181 l57 172 261 -2 261 -3
61 -177 60 -178 112 0 113 0 -11 28 c-6 15 -112 308 -236 652 -124 344 -230
637 -235 653 l-10 27 -108 0 c-74 0 -111 -4 -118 -13z m308 -809 c0 -5 -90 -8
-200 -8 l-200 0 6 28 c6 24 175 523 190 562 5 12 204 -556 204 -582z"/>
<path d="M9060 2235 l0 -115 -70 0 -70 0 0 -80 0 -80 70 0 70 0 0 -308 c0
-330 7 -392 52 -452 12 -17 41 -39 64 -51 48 -23 159 -35 228 -25 l46 7 0 80
0 79 -61 0 c-54 0 -64 3 -90 29 l-29 29 0 306 0 306 90 0 90 0 0 80 0 80 -89
0 -88 0 -7 61 c-3 34 -6 86 -6 115 l0 54 -100 0 -100 0 0 -115z"/>
<path d="M5665 2116 c-71 -18 -112 -41 -166 -97 l-47 -49 -7 75 -7 75 -94 0
-94 0 0 -660 0 -660 100 0 100 0 0 246 0 246 33 -44 c36 -47 120 -102 182
-120 65 -18 173 -13 235 11 167 64 263 218 277 441 11 180 -37 331 -136 430
-104 104 -235 141 -376 106z m152 -188 c102 -47 164 -190 150 -346 -15 -174
-99 -277 -237 -289 -109 -10 -198 46 -248 155 -33 73 -42 213 -19 293 53 180
202 259 354 187z"/>
<path d="M6737 2111 c-74 -24 -101 -42 -159 -105 l-48 -51 0 83 0 82 -95 0
-95 0 0 -660 0 -660 100 0 100 0 0 241 0 241 59 -60 c82 -83 142 -105 272
-100 83 3 104 8 162 36 77 38 134 97 177 186 78 158 79 392 4 553 -38 81 -134
174 -210 203 -82 31 -191 36 -267 11z m168 -180 c88 -41 144 -142 152 -274 14
-213 -78 -351 -241 -364 -115 -10 -201 49 -249 171 -17 40 -21 74 -22 161 0
98 3 116 26 165 54 115 119 160 229 160 42 0 79 -7 105 -19z"/>
<path d="M9905 2116 c-160 -40 -278 -160 -321 -327 -21 -78 -23 -243 -5 -319
47 -197 192 -327 388 -350 262 -30 453 98 518 346 19 75 19 243 0 317 -32 123
-116 237 -213 290 -97 53 -254 71 -367 43z m261 -192 c151 -93 177 -425 45
-567 -78 -85 -229 -100 -320 -32 -122 89 -159 340 -76 505 46 91 121 132 231
128 58 -3 80 -9 120 -34z"/>
<path d="M11022 2111 c-62 -21 -117 -70 -133 -118 -18 -55 -29 -37 -29 47 l0
80 -95 0 -95 0 0 -495 0 -495 100 0 100 0 2 133 c1 72 3 222 3 332 1 224 4
234 74 298 44 40 100 53 182 44 l49 -6 0 93 c0 76 -3 95 -16 100 -29 11 -88 6
-142 -13z"/>
<path d="M11565 2116 c-175 -42 -296 -179 -330 -372 -48 -271 40 -486 239
-580 152 -72 337 -64 482 21 76 44 153 151 154 213 0 21 -3 22 -89 22 l-90 0
-32 -45 c-22 -30 -51 -54 -86 -71 -47 -24 -62 -26 -131 -22 -91 6 -145 30
-191 85 -34 41 -61 116 -61 170 l0 33 350 0 350 0 0 58 c0 205 -90 381 -232
453 -91 46 -227 61 -333 35z m232 -180 c68 -35 123 -121 123 -191 l0 -35 -246
0 -247 0 7 41 c12 75 66 153 130 186 63 33 170 32 233 -1z"/>
</g>
</svg>
