<?xml version="1.0" standalone="no"?>
<!DOCTYPE svg PUBLIC "-//W3C//DTD SVG 20010904//EN"
 "http://www.w3.org/TR/2001/REC-SVG-20010904/DTD/svg10.dtd">
<svg version="1.0" xmlns="http://www.w3.org/2000/svg"
 width="1192.000000pt" height="989.000000pt" viewBox="0 0 1192.000000 989.000000"
 preserveAspectRatio="xMidYMid meet">

<g transform="translate(0.000000,989.000000) scale(0.100000,-0.100000)"
fill="#000000" stroke="none">
<path d="M11050 9865 c-30 -8 -136 -44 -235 -80 -437 -161 -1184 -413 -2755
-929 -426 -140 -1373 -455 -2105 -701 -1922 -645 -2418 -805 -2496 -805 -53 0
-174 28 -414 96 -377 106 -505 136 -585 137 -205 2 -416 -134 -514 -329 -25
-51 -56 -152 -56 -186 0 -11 -10 -20 -28 -23 -93 -19 -214 -57 -412 -128 -217
-77 -228 -80 -310 -80 -70 1 -113 9 -243 47 -213 61 -259 69 -375 64 -93 -3
-105 -6 -184 -45 -131 -65 -246 -188 -304 -323 -19 -44 -19 -107 -22 -2810 -2
-2740 -2 -2766 18 -2830 37 -121 108 -219 213 -294 61 -44 72 -47 977 -296
1235 -340 1199 -331 1346 -337 105 -5 131 -3 192 16 137 41 251 142 319 281
53 108 68 127 131 159 61 31 604 224 675 241 75 17 144 11 335 -31 213 -46
321 -52 418 -24 220 63 368 275 414 590 6 45 10 923 10 2487 l0 2417 73 21
c39 11 182 61 317 110 551 201 896 317 1810 610 693 222 1173 382 1541 513
163 59 871 300 1572 536 701 236 1292 438 1314 449 68 35 130 99 167 172 51
102 59 171 54 468 -4 234 -7 263 -27 327 -45 137 -113 246 -212 340 -78 74
-143 116 -234 151 -61 24 -87 28 -200 30 -89 2 -147 -1 -185 -11z m140 -814
l0 -418 -67 -18 c-38 -10 -95 -28 -127 -41 -33 -13 -63 -24 -68 -24 -4 0 -7
188 -6 417 l3 417 50 20 c49 19 193 64 208 65 4 1 7 -187 7 -418z m-900 -299
l0 -419 -22 -10 c-13 -6 -126 -42 -253 -82 -126 -40 -255 -81 -286 -91 -31
-11 -59 -20 -63 -20 -3 0 -5 187 -4 416 l3 416 300 103 c165 57 306 104 313
104 9 1 12 -89 12 -417z m-1252 -419 l-3 -418 -300 -102 c-165 -56 -306 -102
-312 -102 -10 -1 -13 89 -13 417 l0 417 303 102 c166 56 308 102 315 102 10 1
12 -86 10 -416z m-1288 -432 l0 -429 -22 -6 c-13 -3 -33 -6 -46 -6 -13 0 -137
-38 -275 -85 -138 -47 -253 -85 -254 -85 -2 0 -2 187 -1 416 l3 415 130 45
c72 25 189 65 260 88 72 23 144 50 160 59 17 9 33 16 38 17 4 0 7 -193 7 -429z
m-1260 -436 l0 -415 -27 -5 c-87 -18 -177 -45 -333 -100 -96 -35 -187 -65
-202 -69 l-28 -6 0 419 0 419 45 11 c25 6 114 36 198 67 165 60 276 92 320 93
l27 1 0 -415z m-1250 -414 l0 -418 -61 -12 c-33 -7 -80 -21 -104 -31 l-43 -18
-7 35 c-48 255 -314 446 -687 494 -87 11 -88 12 -88 39 0 25 4 28 48 35 50 7
231 66 584 189 119 41 248 82 285 90 37 8 69 15 71 15 1 1 2 -187 2 -418z
m-840 -3201 l0 -2540 -26 0 c-50 0 -258 52 -604 150 -307 87 -459 125 -582
145 l-38 6 0 2170 0 2170 26 24 c24 23 120 65 146 65 22 0 685 223 807 272
116 46 212 75 254 77 16 1 17 -126 17 -2539z m-2820 2196 l935 -252 3 -2571 2
-2571 -51 19 c-28 11 -94 30 -146 44 -52 13 -98 26 -101 30 -3 3 -1 258 4 568
10 598 7 759 -19 847 -35 117 -101 160 -362 234 -88 24 -218 63 -290 86 -181
58 -286 80 -386 80 -138 0 -205 -32 -255 -122 l-29 -53 -5 -637 c-3 -350 -7
-639 -10 -642 -3 -2 -55 8 -115 23 l-110 27 -3 2572 c-1 1415 -1 2572 0 2572
2 -1 424 -115 938 -254z"/>
<path d="M1045 3299 c-108 -27 -167 -114 -167 -248 -1 -170 78 -244 324 -307
57 -14 186 -50 288 -79 248 -72 327 -87 446 -88 90 -1 106 2 157 27 63 30 93
65 113 133 31 104 8 216 -57 282 -62 61 -128 87 -423 163 -149 38 -314 80
-366 94 -106 28 -253 39 -315 23z"/>
</g>
</svg>
