<?xml version="1.0" standalone="no"?>
<!DOCTYPE svg PUBLIC "-//W3C//DTD SVG 20010904//EN"
 "http://www.w3.org/TR/2001/REC-SVG-20010904/DTD/svg10.dtd">
<svg version="1.0" xmlns="http://www.w3.org/2000/svg"
 width="896.000000pt" height="922.000000pt" viewBox="0 0 896.000000 922.000000"
 preserveAspectRatio="xMidYMid meet">

<g transform="translate(0.000000,922.000000) scale(0.100000,-0.100000)"
fill="#000000" stroke="none">
<path d="M10 4610 l0 -4600 1095 0 1095 0 0 2641 0 2640 32 47 c56 82 165 199
493 532 391 398 520 534 1126 1190 577 625 880 943 1065 1115 196 183 224 213
252 275 23 48 26 72 30 192 3 75 1 233 -3 352 l-7 216 -2589 0 -2589 0 0
-4600z m2320 3705 l0 -475 -980 0 -980 0 0 468 c0 258 3 472 7 475 3 4 444 7
980 7 l973 0 0 -475z"/>
<path d="M4567 7280 c-506 -510 -1225 -1264 -1495 -1569 -116 -130 -114 -120
-28 -206 172 -172 472 -285 866 -328 l115 -12 1 -1665 c0 -1529 2 -1670 17
-1722 31 -103 90 -149 219 -169 82 -13 175 -6 216 15 39 21 89 75 106 118 38
91 38 89 36 1864 l-1 1730 28 13 c65 29 200 129 284 208 102 98 183 200 265
338 l56 95 1727 2 1726 3 65 22 c128 44 183 120 184 252 0 61 -5 87 -25 131
-28 60 -73 111 -123 138 -29 16 -144 17 -1722 20 l-1691 2 -6 158 c-10 236
-46 389 -126 538 -32 58 -250 363 -293 409 -6 6 -148 -130 -401 -385z"/>
</g>
</svg>
