<?xml version="1.0" standalone="no"?>
<!DOCTYPE svg PUBLIC "-//W3C//DTD SVG 20010904//EN"
 "http://www.w3.org/TR/2001/REC-SVG-20010904/DTD/svg10.dtd">
<svg version="1.0" xmlns="http://www.w3.org/2000/svg"
 width="837.000000pt" height="632.000000pt" viewBox="0 0 837.000000 632.000000"
 preserveAspectRatio="xMidYMid meet">

<g transform="translate(0.000000,632.000000) scale(0.100000,-0.100000)"
fill="#000000" stroke="none">
<path d="M1709 6306 c-102 -27 -185 -100 -231 -202 -18 -40 -23 -72 -26 -181
-2 -73 -6 -133 -8 -133 -1 0 -112 61 -246 136 -510 285 -756 381 -953 372
-102 -4 -139 -20 -186 -78 -61 -76 -59 -24 -59 -1495 0 -1300 1 -1341 20
-1382 26 -59 99 -126 176 -164 86 -42 138 -38 297 26 122 49 534 251 803 394
l151 80 11 -123 c24 -257 91 -363 256 -401 39 -9 308 -11 1078 -7 l1027 5 36
-79 c67 -147 80 -168 143 -235 105 -112 306 -238 438 -274 32 -9 114 -19 180
-22 l122 -6 232 -641 c128 -353 245 -668 261 -702 59 -125 144 -191 283 -221
60 -13 136 -14 508 -9 l438 7 0 -294 c-1 -328 7 -404 50 -493 48 -99 127 -143
293 -164 92 -11 953 -12 1202 -1 151 6 163 8 213 36 60 33 104 82 130 147 16
40 17 120 20 1033 2 715 0 1007 -8 1050 -22 110 -83 199 -162 235 -41 19 -72
20 -768 20 -485 0 -738 -4 -764 -11 -54 -15 -119 -78 -149 -147 -51 -114 -62
-201 -62 -494 l0 -268 -313 0 c-338 0 -364 4 -397 53 -14 22 -395 1079 -395
1096 0 3 36 47 80 96 89 101 122 156 140 233 11 46 15 52 37 52 14 0 169 -5
344 -11 632 -21 848 29 935 216 l24 50 0 1325 0 1325 -29 62 c-36 75 -94 133
-169 170 l-57 28 -2450 2 c-1920 1 -2460 -1 -2496 -11z m4559 -943 l2 -303
-2085 0 -2085 0 0 305 0 305 2083 -2 2082 -3 3 -302z"/>
</g>
</svg>
